<svg width="64" height="64" viewBox="0 0 64 64" fill="none" xmlns="http://www.w3.org/2000/svg">
<path d="M17.1484 12.7065C16.1559 11.8599 15.7666 10.4747 16.3307 9.2985C18.7649 4.22287 22.5967 2 25.9185 2C27.9121 2 31.3387 3.31022 34.5291 4.53009C37.3078 5.59258 39.9073 6.58654 41.2246 6.58654C42.3038 6.58654 43.3479 5.89168 44.2287 4.99882C45.5594 3.6499 47.7601 3.14778 49.2214 4.354C50.2667 5.21686 50.6008 6.6871 49.9006 7.84774C48.002 10.9952 44.7199 14.9952 41.2246 14.9952C37.9061 14.9952 34.0538 13.4568 30.8601 12.1814C28.8548 11.3806 27.1092 10.6835 25.9185 10.5361C24.6938 10.3844 23.4818 11.1247 22.4613 12.1166C21.0191 13.5185 18.6786 14.0117 17.1484 12.7065Z" fill="url(#paint0_linear_422_1198)"/>
<path d="M17 51.25C17.25 50.625 18.175 49.15 19.875 48.25C19 48.2917 17.2 48.95 17 51.25Z" fill="url(#paint1_linear_422_1198)"/>
<path d="M22.1394 51.2046C21.4242 50.347 20.0994 50.3074 19.3773 51.1592C18.8611 51.768 18.8173 52.6513 19.3435 53.2515C21.9764 56.2551 27.9263 60.8961 36.4889 61.9054C37.0149 61.9674 37.4882 61.5953 37.5716 61.0722C37.6667 60.4756 37.221 59.932 36.6194 59.878C32.3622 59.4955 27.6713 57.8379 22.1394 51.2046Z" fill="url(#paint2_linear_422_1198)"/>
<path d="M27.25 26.375C27.25 27.1344 26.6344 27.75 25.875 27.75C25.1156 27.75 24.5 27.1344 24.5 26.375C24.5 25.6156 25.1156 25 25.875 25C26.6344 25 27.25 25.6156 27.25 26.375Z" fill="url(#paint3_linear_422_1198)"/>
<path d="M44.5 27.5C45.0523 27.5 45.5 27.0523 45.5 26.5C45.5 25.9477 45.0523 25.5 44.5 25.5C43.9477 25.5 43.5 25.9477 43.5 26.5C43.5 27.0523 43.9477 27.5 44.5 27.5Z" fill="url(#paint4_linear_422_1198)"/>
<path fill-rule="evenodd" clip-rule="evenodd" d="M25.875 34C29.3835 34 32.3386 31.6303 33.227 28.4042C33.6504 27.4307 34.6207 26.75 35.75 26.75C36.9217 26.75 37.9222 27.4827 38.3183 28.5149C39.1664 31.1185 41.6135 33 44.5 33C48.0899 33 51 30.0899 51 26.5C51 22.9101 48.0899 20 44.5 20C42.0618 20 39.9372 21.3424 38.8249 23.3285C38.5285 23.8578 37.8722 24.1216 37.2876 23.9594C36.7974 23.8233 36.2885 23.7522 35.7738 23.75C35.292 23.7481 34.8148 23.8066 34.3528 23.9223C33.7457 24.0744 33.0722 23.7736 32.8117 23.2046C31.6084 20.5761 28.9549 18.75 25.875 18.75C22.4237 18.75 19.5079 21.043 18.568 24.1888C18.4297 24.6517 18.0225 25 17.5393 25H14.75C14.4428 25 14.141 25.0809 13.875 25.2345C13.609 25.3881 13.3881 25.609 13.2345 25.875C13.0809 26.141 13 26.4428 13 26.75C13 27.0499 13.0771 27.3447 13.2237 27.606C13.2307 27.6186 13.24 27.6299 13.2508 27.6395C13.2681 27.6549 13.2808 27.6747 13.2899 27.696C13.3661 27.8747 13.5434 28 13.75 28C14.0261 28 14.25 27.7761 14.25 27.5C14.25 27.3679 14.1988 27.2479 14.1152 27.1585C14.1085 27.1514 14.1038 27.1427 14.102 27.1331C14.1009 27.1278 14.099 27.1227 14.0963 27.1179C14.035 27.0092 14 26.8837 14 26.75C14 26.3358 14.3358 26 14.75 26H17.8839C18.0881 26 18.25 26.1708 18.25 26.375C18.25 30.5862 21.6638 34 25.875 34ZM30.5 26.375C30.5 26.7541 30.4544 27.1225 30.3684 27.4751C30.354 27.5132 30.3401 27.5514 30.3266 27.5899C30.3254 27.5932 30.3271 27.5968 30.3305 27.598C30.3336 27.5991 30.3354 27.6024 30.3345 27.6057C29.7956 29.5626 28.0032 31 25.875 31C23.3207 31 21.25 28.9293 21.25 26.375C21.25 23.8207 23.3207 21.75 25.875 21.75C28.4293 21.75 30.5 23.8207 30.5 26.375ZM44.5 30C42.9667 30 41.6637 29.014 41.1904 27.6415L41.191 27.6403C41.1875 27.6301 41.184 27.62 41.1805 27.6099C41.1763 27.5978 41.172 27.5857 41.1678 27.5737C41.0588 27.2353 41 26.8745 41 26.5C41 24.567 42.567 23 44.5 23C46.433 23 48 24.567 48 26.5C48 28.433 46.433 30 44.5 30Z" fill="url(#paint5_linear_422_1198)"/>
<path d="M34.8308 30.4138C34.8555 29.9021 35.2776 29.5 35.7898 29.5C36.3201 29.5 36.75 29.9299 36.75 30.4602L36.75 45.125C36.75 46.1896 36.4479 47.2323 35.8788 48.132C35.3096 49.0317 34.4969 49.7515 33.535 50.2076C32.573 50.6637 31.5014 50.8375 30.4446 50.7087C29.8873 50.6408 29.3461 50.4902 28.8381 50.2642C28.0815 49.9275 27.9899 48.9604 28.5141 48.3192C29.0384 47.6777 30.0037 47.6402 30.8269 47.7333C30.9247 47.7443 31.0242 47.75 31.125 47.75C32.5747 47.75 34 46.5 34.125 45L34.8308 30.4138Z" fill="url(#paint6_linear_422_1198)"/>
<path d="M17.1484 12.7065C16.1559 11.8599 15.7666 10.4747 16.3307 9.2985C18.7649 4.22287 22.5967 2 25.9185 2C27.9121 2 31.3387 3.31022 34.5291 4.53009C37.3078 5.59258 39.9073 6.58654 41.2246 6.58654C42.3038 6.58654 43.3479 5.89168 44.2287 4.99882C45.5594 3.6499 47.7601 3.14778 49.2214 4.354C50.2667 5.21686 50.6008 6.6871 49.9006 7.84774C48.002 10.9952 44.7199 14.9952 41.2246 14.9952C37.9061 14.9952 34.0538 13.4568 30.8601 12.1814C28.8548 11.3806 27.1092 10.6835 25.9185 10.5361C24.6938 10.3844 23.4818 11.1247 22.4613 12.1166C21.0191 13.5185 18.6786 14.0117 17.1484 12.7065Z" fill="url(#paint7_linear_422_1198)"/>
<path d="M17 51.25C17.25 50.625 18.175 49.15 19.875 48.25C19 48.2917 17.2 48.95 17 51.25Z" fill="url(#paint8_linear_422_1198)"/>
<path d="M22.1394 51.2046C21.4242 50.347 20.0994 50.3074 19.3773 51.1592C18.8611 51.768 18.8173 52.6513 19.3435 53.2515C21.9764 56.2551 27.9263 60.8961 36.4889 61.9054C37.0149 61.9674 37.4882 61.5953 37.5716 61.0722C37.6667 60.4756 37.221 59.932 36.6194 59.878C32.3622 59.4955 27.6713 57.8379 22.1394 51.2046Z" fill="url(#paint9_linear_422_1198)"/>
<path d="M27.25 26.375C27.25 27.1344 26.6344 27.75 25.875 27.75C25.1156 27.75 24.5 27.1344 24.5 26.375C24.5 25.6156 25.1156 25 25.875 25C26.6344 25 27.25 25.6156 27.25 26.375Z" fill="url(#paint10_linear_422_1198)"/>
<path d="M44.5 27.5C45.0523 27.5 45.5 27.0523 45.5 26.5C45.5 25.9477 45.0523 25.5 44.5 25.5C43.9477 25.5 43.5 25.9477 43.5 26.5C43.5 27.0523 43.9477 27.5 44.5 27.5Z" fill="url(#paint11_linear_422_1198)"/>
<path fill-rule="evenodd" clip-rule="evenodd" d="M25.875 34C29.3835 34 32.3386 31.6303 33.227 28.4042C33.6504 27.4307 34.6207 26.75 35.75 26.75C36.9217 26.75 37.9222 27.4827 38.3183 28.5149C39.1664 31.1185 41.6135 33 44.5 33C48.0899 33 51 30.0899 51 26.5C51 22.9101 48.0899 20 44.5 20C42.0618 20 39.9372 21.3424 38.8249 23.3285C38.5285 23.8578 37.8722 24.1216 37.2876 23.9594C36.7974 23.8233 36.2885 23.7522 35.7738 23.75C35.292 23.7481 34.8148 23.8066 34.3528 23.9223C33.7457 24.0744 33.0722 23.7736 32.8117 23.2046C31.6084 20.5761 28.9549 18.75 25.875 18.75C22.4237 18.75 19.5079 21.043 18.568 24.1888C18.4297 24.6517 18.0225 25 17.5393 25H14.75C14.4428 25 14.141 25.0809 13.875 25.2345C13.609 25.3881 13.3881 25.609 13.2345 25.875C13.0809 26.141 13 26.4428 13 26.75C13 27.0499 13.0771 27.3447 13.2237 27.606C13.2307 27.6186 13.24 27.6299 13.2508 27.6395C13.2681 27.6549 13.2808 27.6747 13.2899 27.696C13.3661 27.8747 13.5434 28 13.75 28C14.0261 28 14.25 27.7761 14.25 27.5C14.25 27.3679 14.1988 27.2479 14.1152 27.1585C14.1085 27.1514 14.1038 27.1427 14.102 27.1331C14.1009 27.1278 14.099 27.1227 14.0963 27.1179C14.035 27.0092 14 26.8837 14 26.75C14 26.3358 14.3358 26 14.75 26H17.8839C18.0881 26 18.25 26.1708 18.25 26.375C18.25 30.5862 21.6638 34 25.875 34ZM30.5 26.375C30.5 26.7541 30.4544 27.1225 30.3684 27.4751C30.354 27.5132 30.3401 27.5514 30.3266 27.5899C30.3254 27.5932 30.3271 27.5968 30.3305 27.598C30.3336 27.5991 30.3354 27.6024 30.3345 27.6057C29.7956 29.5626 28.0032 31 25.875 31C23.3207 31 21.25 28.9293 21.25 26.375C21.25 23.8207 23.3207 21.75 25.875 21.75C28.4293 21.75 30.5 23.8207 30.5 26.375ZM44.5 30C42.9667 30 41.6637 29.014 41.1904 27.6415L41.191 27.6403C41.1875 27.6301 41.184 27.62 41.1805 27.6099C41.1763 27.5978 41.172 27.5857 41.1678 27.5737C41.0588 27.2353 41 26.8745 41 26.5C41 24.567 42.567 23 44.5 23C46.433 23 48 24.567 48 26.5C48 28.433 46.433 30 44.5 30Z" fill="url(#paint12_linear_422_1198)"/>
<path d="M34.8308 30.4138C34.8555 29.9021 35.2776 29.5 35.7898 29.5C36.3201 29.5 36.75 29.9299 36.75 30.4602L36.75 45.125C36.75 46.1896 36.4479 47.2323 35.8788 48.132C35.3096 49.0317 34.4969 49.7515 33.535 50.2076C32.573 50.6637 31.5014 50.8375 30.4446 50.7087C29.8873 50.6408 29.3461 50.4902 28.8381 50.2642C28.0815 49.9275 27.9899 48.9604 28.5141 48.3192C29.0384 47.6777 30.0037 47.6402 30.8269 47.7333C30.9247 47.7443 31.0242 47.75 31.125 47.75C32.5747 47.75 34 46.5 34.125 45L34.8308 30.4138Z" fill="url(#paint13_linear_422_1198)"/>
<defs>
<linearGradient id="paint0_linear_422_1198" x1="22.875" y1="16.25" x2="54.875" y2="48.375" gradientUnits="userSpaceOnUse">
<stop stop-color="#0B98E8"/>
<stop offset="1" stop-color="#0470AD"/>
</linearGradient>
<linearGradient id="paint1_linear_422_1198" x1="22.875" y1="16.25" x2="54.875" y2="48.375" gradientUnits="userSpaceOnUse">
<stop stop-color="#0B98E8"/>
<stop offset="1" stop-color="#0470AD"/>
</linearGradient>
<linearGradient id="paint2_linear_422_1198" x1="22.875" y1="16.25" x2="54.875" y2="48.375" gradientUnits="userSpaceOnUse">
<stop stop-color="#0B98E8"/>
<stop offset="1" stop-color="#0470AD"/>
</linearGradient>
<linearGradient id="paint3_linear_422_1198" x1="22.875" y1="16.25" x2="54.875" y2="48.375" gradientUnits="userSpaceOnUse">
<stop stop-color="#0B98E8"/>
<stop offset="1" stop-color="#0470AD"/>
</linearGradient>
<linearGradient id="paint4_linear_422_1198" x1="22.875" y1="16.25" x2="54.875" y2="48.375" gradientUnits="userSpaceOnUse">
<stop stop-color="#0B98E8"/>
<stop offset="1" stop-color="#0470AD"/>
</linearGradient>
<linearGradient id="paint5_linear_422_1198" x1="22.875" y1="16.25" x2="54.875" y2="48.375" gradientUnits="userSpaceOnUse">
<stop stop-color="#0B98E8"/>
<stop offset="1" stop-color="#0470AD"/>
</linearGradient>
<linearGradient id="paint6_linear_422_1198" x1="22.875" y1="16.25" x2="54.875" y2="48.375" gradientUnits="userSpaceOnUse">
<stop stop-color="#0B98E8"/>
<stop offset="1" stop-color="#0470AD"/>
</linearGradient>
<linearGradient id="paint7_linear_422_1198" x1="22.875" y1="16.25" x2="54.875" y2="48.375" gradientUnits="userSpaceOnUse">
<stop stop-color="#0B98E8"/>
<stop offset="1" stop-color="#0470AD"/>
</linearGradient>
<linearGradient id="paint8_linear_422_1198" x1="22.875" y1="16.25" x2="54.875" y2="48.375" gradientUnits="userSpaceOnUse">
<stop stop-color="#0B98E8"/>
<stop offset="1" stop-color="#0470AD"/>
</linearGradient>
<linearGradient id="paint9_linear_422_1198" x1="22.875" y1="16.25" x2="54.875" y2="48.375" gradientUnits="userSpaceOnUse">
<stop stop-color="#0B98E8"/>
<stop offset="1" stop-color="#0470AD"/>
</linearGradient>
<linearGradient id="paint10_linear_422_1198" x1="22.875" y1="16.25" x2="54.875" y2="48.375" gradientUnits="userSpaceOnUse">
<stop stop-color="#0B98E8"/>
<stop offset="1" stop-color="#0470AD"/>
</linearGradient>
<linearGradient id="paint11_linear_422_1198" x1="22.875" y1="16.25" x2="54.875" y2="48.375" gradientUnits="userSpaceOnUse">
<stop stop-color="#0B98E8"/>
<stop offset="1" stop-color="#0470AD"/>
</linearGradient>
<linearGradient id="paint12_linear_422_1198" x1="22.875" y1="16.25" x2="54.875" y2="48.375" gradientUnits="userSpaceOnUse">
<stop stop-color="#0B98E8"/>
<stop offset="1" stop-color="#0470AD"/>
</linearGradient>
<linearGradient id="paint13_linear_422_1198" x1="22.875" y1="16.25" x2="54.875" y2="48.375" gradientUnits="userSpaceOnUse">
<stop stop-color="#0B98E8"/>
<stop offset="1" stop-color="#0470AD"/>
</linearGradient>
</defs>
</svg>
